<svg width="25" height="25" viewBox="0 0 25 25" fill="none" xmlns="http://www.w3.org/2000/svg">
<path d="M17.2683 2.60974H19.9383C20.5043 2.59973 21.0542 2.79787 21.4838 3.16655C21.9133 3.53524 22.1925 4.0488 22.2683 4.60974V11.6097C22.1925 12.1707 21.9133 12.6842 21.4838 13.0529C21.0542 13.4216 20.5043 13.6197 19.9383 13.6097H17.2683M10.2683 15.6097V19.6097C10.2683 20.4054 10.5844 21.1684 11.147 21.7311C11.7096 22.2937 12.4727 22.6097 13.2683 22.6097L17.2683 13.6097V2.60974H5.98834C5.50601 2.60428 5.03796 2.77333 4.67044 3.08573C4.30291 3.39813 4.06066 3.83283 3.98834 4.30974L2.60834 13.3097C2.56483 13.5964 2.58417 13.8891 2.665 14.1675C2.74584 14.4459 2.88624 14.7034 3.07648 14.9222C3.26673 15.141 3.50226 15.3158 3.76677 15.4345C4.03128 15.5532 4.31843 15.613 4.60834 15.6097H10.2683Z" stroke="black" stroke-width="2" stroke-linecap="round" stroke-linejoin="round"/>
</svg>
