<svg width="22" height="23" viewBox="0 0 22 23" fill="none" xmlns="http://www.w3.org/2000/svg">
<path d="M6.26831 21.6097H3.26831C2.73788 21.6097 2.22917 21.399 1.8541 21.024C1.47902 20.6489 1.26831 20.1402 1.26831 19.6097V12.6097C1.26831 12.0793 1.47902 11.5706 1.8541 11.1955C2.22917 10.8205 2.73788 10.6097 3.26831 10.6097H6.26831M13.2683 8.60974V4.60974C13.2683 3.81409 12.9522 3.05103 12.3896 2.48842C11.827 1.92581 11.064 1.60974 10.2683 1.60974L6.26831 10.6097V21.6097H17.5483C18.0306 21.6152 18.4987 21.4461 18.8662 21.1337C19.2337 20.8213 19.476 20.3866 19.5483 19.9097L20.9283 10.9097C20.9718 10.6231 20.9525 10.3304 20.8717 10.052C20.7908 9.77356 20.6504 9.51604 20.4602 9.29726C20.2699 9.07848 20.0344 8.90367 19.7699 8.78496C19.5054 8.66624 19.2182 8.60646 18.9283 8.60974H13.2683Z" stroke="black" stroke-width="2" stroke-linecap="round" stroke-linejoin="round"/>
</svg>
